<mxfile host="app.diagrams.net" modified="2024-02-26T03:26:29.527Z" agent="Mozilla/5.0 (Windows NT 10.0; Win64; x64) AppleWebKit/537.36 (KHTML, like Gecko) Chrome/122.0.0.0 Safari/537.36" etag="pIikLanblnGxnDFKZcrt" version="23.1.6" type="device">
  <diagram name="Page-1" id="822b0af5-4adb-64df-f703-e8dfc1f81529">
    <mxGraphModel dx="1434" dy="738" grid="1" gridSize="10" guides="1" tooltips="1" connect="1" arrows="1" fold="1" page="1" pageScale="1" pageWidth="1100" pageHeight="850" background="none" math="0" shadow="0">
      <root>
        <mxCell id="0" />
        <mxCell id="1" parent="0" />
        <mxCell id="goS52DWAnwot7NxcOyrL-36" value="" style="rounded=0;whiteSpace=wrap;html=1;dashed=1;strokeColor=#FF6666;" parent="1" vertex="1">
          <mxGeometry x="468" y="300" width="390" height="400" as="geometry" />
        </mxCell>
        <mxCell id="goS52DWAnwot7NxcOyrL-32" style="edgeStyle=orthogonalEdgeStyle;rounded=0;orthogonalLoop=1;jettySize=auto;html=1;entryX=0;entryY=0.5;entryDx=0;entryDy=0;curved=1;" parent="1" source="goS52DWAnwot7NxcOyrL-3" target="goS52DWAnwot7NxcOyrL-15" edge="1">
          <mxGeometry relative="1" as="geometry" />
        </mxCell>
        <mxCell id="goS52DWAnwot7NxcOyrL-3" value="" style="verticalLabelPosition=bottom;aspect=fixed;html=1;shape=mxgraph.salesforce.bots;" parent="1" vertex="1">
          <mxGeometry x="210" y="330" width="60" height="57" as="geometry" />
        </mxCell>
        <mxCell id="goS52DWAnwot7NxcOyrL-7" value="" style="strokeColor=#006EAF;shadow=1;strokeWidth=1;rounded=1;absoluteArcSize=1;arcSize=2;fillColor=#3399FF;fontColor=#ffffff;" parent="1" vertex="1">
          <mxGeometry x="690" y="376.5" width="90" height="44" as="geometry" />
        </mxCell>
        <mxCell id="goS52DWAnwot7NxcOyrL-8" value="Task&#xa;Queues" style="sketch=0;dashed=0;connectable=0;html=1;fillColor=#757575;strokeColor=none;shape=mxgraph.gcp2.task_queues;part=1;labelPosition=right;verticalLabelPosition=middle;align=left;verticalAlign=middle;spacingLeft=5;fontSize=12;" parent="goS52DWAnwot7NxcOyrL-7" vertex="1">
          <mxGeometry y="0.5" width="32" height="32" relative="1" as="geometry">
            <mxPoint x="5" y="-16" as="offset" />
          </mxGeometry>
        </mxCell>
        <mxCell id="goS52DWAnwot7NxcOyrL-30" style="edgeStyle=orthogonalEdgeStyle;rounded=0;orthogonalLoop=1;jettySize=auto;html=1;curved=1;entryX=-0.004;entryY=0.612;entryDx=0;entryDy=0;entryPerimeter=0;" parent="1" source="goS52DWAnwot7NxcOyrL-9" target="goS52DWAnwot7NxcOyrL-7" edge="1">
          <mxGeometry relative="1" as="geometry">
            <mxPoint x="690" y="365.5" as="targetPoint" />
          </mxGeometry>
        </mxCell>
        <mxCell id="goS52DWAnwot7NxcOyrL-13" value="" style="rounded=0;whiteSpace=wrap;html=1;fillColor=default;" parent="1" vertex="1">
          <mxGeometry x="515" y="500" width="296" height="176" as="geometry" />
        </mxCell>
        <mxCell id="goS52DWAnwot7NxcOyrL-9" value="" style="sketch=0;pointerEvents=1;shadow=0;dashed=0;html=1;strokeColor=none;fillColor=#505050;labelPosition=center;verticalLabelPosition=bottom;verticalAlign=top;outlineConnect=0;align=center;shape=image;labelBackgroundColor=default;aspect=fixed;perimeter=ellipsePerimeter;spacingTop=3;image=img/lib/active_directory/web_server.svg;" parent="1" vertex="1">
          <mxGeometry x="526" y="337" width="48" height="57" as="geometry" />
        </mxCell>
        <mxCell id="goS52DWAnwot7NxcOyrL-12" value="" style="image;aspect=fixed;perimeter=ellipsePerimeter;html=1;align=center;shadow=0;dashed=0;spacingTop=3;image=img/lib/active_directory/database.svg;" parent="1" vertex="1">
          <mxGeometry x="543.7" y="724" width="94.59" height="70" as="geometry" />
        </mxCell>
        <mxCell id="goS52DWAnwot7NxcOyrL-33" style="edgeStyle=orthogonalEdgeStyle;rounded=0;orthogonalLoop=1;jettySize=auto;html=1;exitX=1;exitY=0.5;exitDx=0;exitDy=0;curved=1;" parent="1" source="goS52DWAnwot7NxcOyrL-15" target="goS52DWAnwot7NxcOyrL-9" edge="1">
          <mxGeometry relative="1" as="geometry" />
        </mxCell>
        <mxCell id="goS52DWAnwot7NxcOyrL-15" value="" style="shape=image;html=1;verticalAlign=top;verticalLabelPosition=bottom;labelBackgroundColor=#ffffff;imageAspect=0;aspect=fixed;image=https://cdn2.iconfinder.com/data/icons/kids/128x128/apps/hook.png" parent="1" vertex="1">
          <mxGeometry x="370" y="220" width="60" height="60" as="geometry" />
        </mxCell>
        <mxCell id="goS52DWAnwot7NxcOyrL-18" value="" style="whiteSpace=wrap;html=1;aspect=fixed;" parent="1" vertex="1">
          <mxGeometry x="695" y="558" width="80" height="80" as="geometry" />
        </mxCell>
        <mxCell id="goS52DWAnwot7NxcOyrL-20" value="" style="shape=mxgraph.veeam.2d.download;html=1;verticalAlign=top;verticalLabelPosition=bottom;labelBackgroundColor=#ffffff;imageAspect=0;aspect=fixed;image=https://cdn1.iconfinder.com/data/icons/material-core/19/file-download-128.png;shadow=0;dashed=0;strokeColor=none;fillColor=#4495D1;labelPosition=center;outlineConnect=0;" parent="1" vertex="1">
          <mxGeometry x="710" y="573" width="50" height="50" as="geometry" />
        </mxCell>
        <mxCell id="goS52DWAnwot7NxcOyrL-28" style="edgeStyle=orthogonalEdgeStyle;rounded=0;orthogonalLoop=1;jettySize=auto;html=1;entryX=0.5;entryY=0;entryDx=0;entryDy=0;exitX=0.5;exitY=1;exitDx=0;exitDy=0;startArrow=classic;startFill=1;curved=1;" parent="1" source="goS52DWAnwot7NxcOyrL-21" target="goS52DWAnwot7NxcOyrL-12" edge="1">
          <mxGeometry relative="1" as="geometry">
            <mxPoint x="571" y="638" as="sourcePoint" />
          </mxGeometry>
        </mxCell>
        <mxCell id="goS52DWAnwot7NxcOyrL-21" value="" style="whiteSpace=wrap;html=1;aspect=fixed;" parent="1" vertex="1">
          <mxGeometry x="551" y="558" width="80" height="80" as="geometry" />
        </mxCell>
        <mxCell id="goS52DWAnwot7NxcOyrL-22" value="" style="image;sketch=0;aspect=fixed;html=1;points=[];align=center;fontSize=12;image=img/lib/mscae/Search.svg;" parent="1" vertex="1">
          <mxGeometry x="566" y="573" width="50" height="50" as="geometry" />
        </mxCell>
        <mxCell id="goS52DWAnwot7NxcOyrL-24" style="edgeStyle=orthogonalEdgeStyle;rounded=0;orthogonalLoop=1;jettySize=auto;html=1;curved=1;entryX=0.5;entryY=1;entryDx=0;entryDy=0;" parent="1" source="goS52DWAnwot7NxcOyrL-13" target="goS52DWAnwot7NxcOyrL-39" edge="1">
          <mxGeometry relative="1" as="geometry">
            <mxPoint x="250" y="430" as="targetPoint" />
          </mxGeometry>
        </mxCell>
        <mxCell id="goS52DWAnwot7NxcOyrL-31" style="edgeStyle=orthogonalEdgeStyle;rounded=0;orthogonalLoop=1;jettySize=auto;html=1;exitX=0.5;exitY=1;exitDx=0;exitDy=0;entryX=0.5;entryY=0;entryDx=0;entryDy=0;curved=1;" parent="1" source="goS52DWAnwot7NxcOyrL-7" target="goS52DWAnwot7NxcOyrL-18" edge="1">
          <mxGeometry relative="1" as="geometry" />
        </mxCell>
        <mxCell id="goS52DWAnwot7NxcOyrL-38" value="webhook&lt;br&gt;&quot;Google Apps Script&quot;" style="text;html=1;align=center;verticalAlign=middle;whiteSpace=wrap;rounded=0;" parent="1" vertex="1">
          <mxGeometry x="335" y="190" width="130" height="30" as="geometry" />
        </mxCell>
        <mxCell id="goS52DWAnwot7NxcOyrL-39" value="Telegram bot" style="text;html=1;align=center;verticalAlign=middle;whiteSpace=wrap;rounded=0;" parent="1" vertex="1">
          <mxGeometry x="200" y="383.5" width="80" height="30" as="geometry" />
        </mxCell>
        <mxCell id="goS52DWAnwot7NxcOyrL-40" value="Simple Http Server" style="text;html=1;align=center;verticalAlign=middle;whiteSpace=wrap;rounded=0;" parent="1" vertex="1">
          <mxGeometry x="490" y="387" width="120" height="30" as="geometry" />
        </mxCell>
        <mxCell id="goS52DWAnwot7NxcOyrL-42" value="" style="endArrow=classic;startArrow=none;html=1;rounded=0;startFill=0;" parent="1" edge="1">
          <mxGeometry width="50" height="50" relative="1" as="geometry">
            <mxPoint x="80" y="360" as="sourcePoint" />
            <mxPoint x="200.75" y="360.15999999999997" as="targetPoint" />
          </mxGeometry>
        </mxCell>
        <mxCell id="goS52DWAnwot7NxcOyrL-43" value="" style="endArrow=none;startArrow=classic;html=1;rounded=0;startFill=1;endFill=0;" parent="1" edge="1">
          <mxGeometry width="50" height="50" relative="1" as="geometry">
            <mxPoint x="80" y="370" as="sourcePoint" />
            <mxPoint x="200.75" y="370.15999999999997" as="targetPoint" />
          </mxGeometry>
        </mxCell>
        <mxCell id="goS52DWAnwot7NxcOyrL-44" value="magnet URL" style="text;html=1;align=center;verticalAlign=middle;whiteSpace=wrap;rounded=0;" parent="1" vertex="1">
          <mxGeometry x="90" y="337" width="91" height="30" as="geometry" />
        </mxCell>
        <mxCell id="goS52DWAnwot7NxcOyrL-45" value="" style="group" parent="1" vertex="1" connectable="0">
          <mxGeometry x="20" y="333.5" width="60" height="80" as="geometry" />
        </mxCell>
        <mxCell id="goS52DWAnwot7NxcOyrL-5" value="" style="verticalLabelPosition=bottom;html=1;verticalAlign=top;align=center;strokeColor=none;fillColor=#00BEF2;shape=mxgraph.azure.user;" parent="goS52DWAnwot7NxcOyrL-45" vertex="1">
          <mxGeometry x="6.25" width="47.5" height="50" as="geometry" />
        </mxCell>
        <mxCell id="goS52DWAnwot7NxcOyrL-37" value="User" style="text;html=1;align=center;verticalAlign=middle;whiteSpace=wrap;rounded=0;" parent="goS52DWAnwot7NxcOyrL-45" vertex="1">
          <mxGeometry y="50" width="60" height="30" as="geometry" />
        </mxCell>
        <mxCell id="goS52DWAnwot7NxcOyrL-46" value="media Detail" style="text;html=1;align=center;verticalAlign=middle;whiteSpace=wrap;rounded=0;" parent="1" vertex="1">
          <mxGeometry x="90" y="365" width="91" height="30" as="geometry" />
        </mxCell>
        <mxCell id="goS52DWAnwot7NxcOyrL-47" value="Downloader" style="text;html=1;align=center;verticalAlign=middle;whiteSpace=wrap;rounded=0;" parent="1" vertex="1">
          <mxGeometry x="697.5" y="638" width="75" height="30" as="geometry" />
        </mxCell>
        <mxCell id="goS52DWAnwot7NxcOyrL-48" value="TMDB" style="text;html=1;align=center;verticalAlign=middle;whiteSpace=wrap;rounded=0;" parent="1" vertex="1">
          <mxGeometry x="561" y="786" width="60" height="30" as="geometry" />
        </mxCell>
        <mxCell id="goS52DWAnwot7NxcOyrL-49" value="Query Service" style="text;html=1;align=center;verticalAlign=middle;whiteSpace=wrap;rounded=0;" parent="1" vertex="1">
          <mxGeometry x="551.49" y="528" width="79" height="30" as="geometry" />
        </mxCell>
        <mxCell id="AU4DkWl8yvzJaVbALQON-8" value="" style="whiteSpace=wrap;html=1;shape=mxgraph.basic.cloud_callout;flipH=1;" parent="1" vertex="1">
          <mxGeometry x="170" y="200" width="140" height="90" as="geometry" />
        </mxCell>
        <mxCell id="AU4DkWl8yvzJaVbALQON-9" value="chat id and magnet" style="text;html=1;align=center;verticalAlign=middle;whiteSpace=wrap;rounded=0;" parent="1" vertex="1">
          <mxGeometry x="173" y="220" width="134" height="30" as="geometry" />
        </mxCell>
        <mxCell id="AU4DkWl8yvzJaVbALQON-11" value="processor" style="shape=note;size=20;whiteSpace=wrap;html=1;" parent="1" vertex="1">
          <mxGeometry x="515" y="500" width="125" height="30" as="geometry" />
        </mxCell>
        <mxCell id="AU4DkWl8yvzJaVbALQON-16" value="Media Download Helper" style="text;html=1;align=center;verticalAlign=middle;whiteSpace=wrap;rounded=0;fontStyle=1;fontSize=20;fillColor=none;fontColor=#FF6666;strokeColor=none;labelBorderColor=none;" parent="1" vertex="1">
          <mxGeometry x="590" y="320" width="250" height="30" as="geometry" />
        </mxCell>
      </root>
    </mxGraphModel>
  </diagram>
</mxfile>
